<svg id="Layer_1" data-name="Layer 1" xmlns="http://www.w3.org/2000/svg" viewBox="0 0 100 100"><defs><style>.cls-1{fill:#003540;}</style></defs><title>symbol ocean</title><path class="cls-1" d="M93.3,25a50,50,0,1,0,0,50A50,50,0,0,0,93.3,25ZM89,72.5a45,45,0,1,1,0-45A45.11,45.11,0,0,1,89,72.5Z"/><path class="cls-1" d="M50,12.58C28.34,12.58,6.77,50,17.6,68.71,23,78.09,36.51,82.78,50,82.78s27-4.69,32.4-14.07C93.23,50,71.66,12.58,50,12.58ZM78.07,66.21C74,73.24,63,77.78,50,77.78S26,73.24,21.93,66.21s-2.48-18.84,4-30.1S41.88,17.58,50,17.58s17.56,7.28,24.06,18.53S82.13,59.18,78.07,66.21Z"/><path class="cls-1" d="M50,25.2a6.13,6.13,0,0,0-5.37,3.1L28.52,56.2a6.2,6.2,0,0,0,5.37,9.3H66.11a6.2,6.2,0,0,0,5.37-9.3L55.37,28.3A6.13,6.13,0,0,0,50,25.2ZM67.15,59.9a1.16,1.16,0,0,1-1,.6H33.89a1.2,1.2,0,0,1-1-1.8L49,30.8a1.2,1.2,0,0,1,2.08,0L67.15,58.7A1.15,1.15,0,0,1,67.15,59.9Z"/></svg>